<svg width="1728" height="1256" viewBox="0 0 1728 1256" fill="none" xmlns="http://www.w3.org/2000/svg">
<path d="M-442.599 1157.95C-446.544 1134.68 -433.123 792.905 -308.783 509.924C-197.169 256.266 62.3828 111.697 366.161 294.01C691.647 489.404 972.4 509.053 1198.78 452.055C1422.2 395.545 1570.77 225.274 1637.5 116.699C1782.32 -117.933 1996.24 27.199 1921.1 335.907C1885.65 479.51 1792.18 519.659 1630.21 534.56C1460.91 550.135 1210.77 517.074 863.835 584.45C529.244 649.682 152.719 806.345 -59.0067 1005.76C-284.334 1218.16 -409.565 1361 -442.599 1157.95Z" fill="url(#paint0_linear_1381_4)"/>
<defs>
<linearGradient id="paint0_linear_1381_4" x1="1589.03" y1="487.052" x2="183.591" y2="391.541" gradientUnits="userSpaceOnUse">
<stop offset="0.00948164" stop-color="#EB2E2E"/>
<stop offset="0.490372" stop-color="#E47C44"/>
<stop offset="1" stop-color="#EEB82F"/>
</linearGradient>
</defs>
</svg>
