<svg width="40" height="40" viewBox="0 0 40 40" fill="none" xmlns="http://www.w3.org/2000/svg">
<path d="M15.2474 12.4805C14.314 12.4805 13.5807 13.2305 13.5807 14.1471C13.5807 15.0638 14.3307 15.8138 15.2474 15.8138C16.164 15.8138 16.914 15.0638 16.914 14.1471C16.914 13.2305 16.164 12.4805 15.2474 12.4805Z" fill="#2596be"/>
<path d="M35.7667 8.39992C34.3667 5.14992 31.2834 3.33325 26.9834 3.33325H13.0167C7.66671 3.33325 3.33337 7.66658 3.33337 13.0166V26.9833C3.33337 31.2833 5.15004 34.3666 8.40004 35.7666C8.71671 35.8999 9.08337 35.8166 9.31671 35.5833L35.5834 9.31659C35.8334 9.06659 35.9167 8.69992 35.7667 8.39992ZM17.55 20.3999C16.9 21.0333 16.05 21.3333 15.2 21.3333C14.35 21.3333 13.5 21.0166 12.85 20.3999C11.15 18.7999 9.28337 16.2499 10 13.2166C10.6334 10.4666 13.0667 9.23325 15.2 9.23325C17.3334 9.23325 19.7667 10.4666 20.4 13.2333C21.1 16.2499 19.2334 18.7999 17.55 20.3999Z" fill="#2596be"/>
<path d="M32.4482 34.2159C32.8148 34.5826 32.7648 35.1826 32.3148 35.4326C30.8482 36.2492 29.0648 36.6659 26.9815 36.6659H13.0149C12.5315 36.6659 12.3315 36.0992 12.6649 35.7659L22.7315 25.6992C23.0648 25.3659 23.5815 25.3659 23.9148 25.6992L32.4482 34.2159Z" fill="#2596be"/>
<path d="M36.6695 13.0149V26.9815C36.6695 29.0648 36.2528 30.8648 35.4362 32.3148C35.1862 32.7648 34.5862 32.7982 34.2195 32.4482L25.6862 23.9148C25.3528 23.5815 25.3528 23.0648 25.6862 22.7315L35.7528 12.6649C36.1028 12.3315 36.6695 12.5315 36.6695 13.0149Z" fill="#2596be"/>
</svg>
