<svg width="32" height="33" viewBox="0 0 32 33" fill="none" xmlns="http://www.w3.org/2000/svg">
<path fill-rule="evenodd" clip-rule="evenodd" d="M22.5859 4.55273C24.3739 4.55273 26.0939 5.2594 27.3593 6.5274C28.6259 7.79273 29.3339 9.4994 29.3339 11.2861V21.8194C29.3339 25.5394 26.3073 28.5527 22.5859 28.5527H9.4139C5.69257 28.5527 2.66724 25.5394 2.66724 21.8194V11.2861C2.66724 7.56607 5.67924 4.55273 9.4139 4.55273H22.5859ZM24.7073 13.2727L24.8139 13.1661C25.1326 12.7794 25.1326 12.2194 24.7993 11.8327C24.6139 11.6341 24.3592 11.5127 24.0939 11.4861C23.8139 11.4714 23.5473 11.5661 23.3459 11.7527L17.3339 16.5527C16.5606 17.1941 15.4526 17.1941 14.6672 16.5527L8.66724 11.7527C8.25257 11.4461 7.67924 11.4861 7.3339 11.8461C6.9739 12.2061 6.9339 12.7794 7.23924 13.1794L7.4139 13.3527L13.4806 18.0861C14.2273 18.6727 15.1326 18.9927 16.0806 18.9927C17.0259 18.9927 17.9472 18.6727 18.6926 18.0861L24.7073 13.2727Z" fill="#191825" fill-opacity="0.75"/>
</svg>
