<svg width="28" height="26" viewBox="0 0 28 26" fill="none" xmlns="http://www.w3.org/2000/svg">
<path d="M21.8912 16.0935C21.5459 16.4281 21.3872 16.9121 21.4659 17.3868L22.6512 23.9468C22.7512 24.5028 22.5165 25.0655 22.0512 25.3868C21.5952 25.7201 20.9885 25.7601 20.4912 25.4935L14.5859 22.4135C14.3805 22.3041 14.1525 22.2455 13.9192 22.2388H13.5579C13.4325 22.2575 13.3099 22.2975 13.1979 22.3588L7.29118 25.4535C6.99918 25.6001 6.66852 25.6521 6.34452 25.6001C5.55518 25.4508 5.02852 24.6988 5.15785 23.9055L6.34452 17.3455C6.42318 16.8668 6.26452 16.3801 5.91918 16.0401L1.10452 11.3735C0.70185 10.9828 0.56185 10.3961 0.74585 9.86683C0.924517 9.33883 1.38052 8.9535 1.93118 8.86683L8.55785 7.9055C9.06185 7.8535 9.50452 7.54683 9.73118 7.0935L12.6512 1.10683C12.7205 0.973496 12.8099 0.85083 12.9179 0.74683L13.0379 0.653496C13.1005 0.584163 13.1725 0.52683 13.2525 0.480163L13.3979 0.42683L13.6245 0.333496H14.1859C14.6872 0.385496 15.1285 0.685496 15.3592 1.1335L18.3179 7.0935C18.5312 7.5295 18.9459 7.83216 19.4245 7.9055L26.0512 8.86683C26.6112 8.94683 27.0792 9.3335 27.2645 9.86683C27.4392 10.4015 27.2885 10.9881 26.8779 11.3735L21.8912 16.0935Z" fill="#FACD49"/>
</svg>
