<?xml version="1.0" encoding="iso-8859-1"?>
<!-- Uploaded to: SVG Repo, www.svgrepo.com, Generator: SVG Repo Mixer Tools -->
<svg fill="#000000" height="800px" width="800px" version="1.1" id="Layer_1" xmlns="http://www.w3.org/2000/svg" xmlns:xlink="http://www.w3.org/1999/xlink" 
	 viewBox="0 0 512.002 512.002" xml:space="preserve">
<g>
	<g>
		<path d="M278.258,46.245L259.001,2.433c-0.999-2.274-3.791-3.131-5.896-1.805l-39.12,24.665l-5.046-11.48
			c-2.532-5.759-9.283-8.464-15.136-5.893c-5.796,2.549-8.439,9.338-5.891,15.134l5.093,11.587l-8.402,3.693
			c-3.023,1.328-4.396,4.855-3.068,7.879l12.086,27.498c1.328,3.023,4.855,4.396,7.879,3.068l8.402-3.693l18.69,42.523
			c5.396-6.005,12.616-9.745,20.307-10.881l-17.922-40.776l44.625-12.144C278.002,51.156,279.257,48.517,278.258,46.245z"/>
	</g>
</g>
<g>
	<g>
		<path d="M282.157,180.396l-6.26-14.244c-6.844,9.723-7.456,10.594-15.445,21.944l0.677,1.542c2.537,5.77,9.29,8.46,15.134,5.893
			C282.061,192.983,284.705,186.194,282.157,180.396z"/>
	</g>
</g>
<g>
	<g>
		<path d="M220.325,218.629l48.885-69.458c5.968-8.478,3.931-20.187-4.546-26.153c-8.477-5.967-20.188-3.931-26.154,4.547
			l-41.614,59.127l-62.191-14.377l44.044,1.34c-5.302-11.689-18.134-18.572-31.226-15.816l-48.84,10.28
			c-15.126,3.184-24.808,18.026-21.623,33.153l28.346,134.674c-0.609,10.366-3.44,58.572-3.842,65.419l-46.623,77.497
			c-6.226,10.347-2.883,23.782,7.463,30.007c10.344,6.225,23.78,2.885,30.007-7.464l49.4-82.11c1.823-3.03,2.884-6.458,3.092-9.99
			c0.44-7.496,4.055-69.058,4.494-76.513l17.861-3.76c3.977,9.674,21.281,51.772,24.088,58.602l1.054,102.728
			c0.122,11.999,9.888,21.641,21.859,21.641c0.075,0,0.153,0,0.228-0.001c12.075-0.124,21.764-10.013,21.64-22.088l-1.096-106.929
			c-0.028-2.778-0.584-5.524-1.64-8.091c-2.851-6.935-20.934-50.924-23.732-57.732l-16.426-78.04l-66.984-30.231l74.499,17.224
			C208.17,227.831,215.918,224.891,220.325,218.629z"/>
	</g>
</g>
<g>
	<g>
		<path d="M159.058,97.785c-4.713-22.391-26.684-36.722-49.076-32.009C87.59,70.488,73.26,92.46,77.972,114.851
			c4.713,22.396,26.688,36.722,49.076,32.009C149.44,142.148,163.77,120.176,159.058,97.785z"/>
	</g>
</g>
<g>
	<g>
		<path d="M456.647,397.632c-4.484-4.152-11.487-3.886-15.641,0.601L415.6,425.673c1.683-13.279,5.144-26.558,10.393-39.838
			c1.678-4.246-1.451-8.858-6.021-8.858H316.691c-4.558,0-7.7,4.609-6.021,8.858c15.455,39.103,15.455,78.205,0,117.307
			c-1.677,4.243,1.45,8.858,6.021,8.858h103.281c4.558,0,7.701-4.609,6.021-8.858c-5.843-14.781-9.472-29.562-10.897-44.343
			l42.153-45.526C461.402,408.788,461.133,401.785,456.647,397.632z"/>
	</g>
</g>
</svg>